<svg width="29" height="29" viewBox="0 0 29 29" fill="none" xmlns="http://www.w3.org/2000/svg">
<path d="M16.2047 0.424194V2.35263C18.1121 2.35263 19.899 2.83474 21.5655 3.79896C23.1516 4.74309 24.4165 6.00863 25.3602 7.59557C26.3239 9.26286 26.8058 11.0507 26.8058 12.959H28.7332C28.7332 10.6891 28.161 8.57988 27.0166 6.63135C25.9123 4.74309 24.4165 3.24654 22.5292 2.14171C20.5817 0.996699 18.4735 0.424194 16.2047 0.424194ZM6.23617 3.31685C5.69408 3.31685 5.22225 3.4876 4.8207 3.82909L1.71869 6.99293L1.80904 6.93267C1.3071 7.35451 0.975821 7.8768 0.815199 8.49952C0.674655 9.12225 0.714811 9.72488 0.935665 10.3074C1.49784 11.8743 2.25075 13.4813 3.1944 15.1285C4.51953 17.3985 6.09563 19.4374 7.9227 21.2453C10.854 24.1982 14.4981 26.5284 18.855 28.2359H18.8851C19.4674 28.4367 20.0496 28.4769 20.6319 28.3564C21.2342 28.2359 21.7663 27.9747 22.228 27.573L25.2698 24.5297C25.6714 24.1279 25.8721 23.6357 25.8721 23.0532C25.8721 22.4506 25.6714 21.9484 25.2698 21.5466L21.3246 17.5692C20.923 17.1674 20.4211 16.9666 19.8187 16.9666C19.2164 16.9666 18.7145 17.1674 18.3129 17.5692L16.4156 19.4976C14.8897 18.7745 13.5645 17.8806 12.4402 16.8159C11.3158 15.7312 10.4224 14.4154 9.75981 12.8686L11.6873 10.9402C12.1089 10.4983 12.3197 9.97598 12.3197 9.37335C12.3197 8.75062 12.0788 8.24843 11.5969 7.86676L11.6873 7.95715L7.65165 3.82909C7.2501 3.4876 6.77827 3.31685 6.23617 3.31685ZM16.2047 4.28107V6.20951C17.4295 6.20951 18.5538 6.51082 19.5778 7.11346C20.6218 7.7161 21.445 8.5397 22.0473 9.58427C22.6497 10.6088 22.9508 11.7337 22.9508 12.959H24.8783C24.8783 11.3922 24.4868 9.93581 23.7038 8.58992C22.9207 7.28421 21.8767 6.23964 20.5716 5.45621C19.2264 4.67278 17.7708 4.28107 16.2047 4.28107ZM6.23617 5.24529C6.29641 5.24529 6.36668 5.27542 6.44699 5.33568L10.3923 9.37335C10.4123 9.4537 10.3923 9.52401 10.332 9.58427L7.47095 12.4167L7.68177 13.0193L8.07328 13.863C8.39452 14.546 8.76596 15.2089 9.18759 15.8517C9.76984 16.7556 10.4123 17.529 11.115 18.1718C12.0587 19.0959 13.1931 19.9396 14.5182 20.7029C15.1808 21.0846 15.743 21.3658 16.2047 21.5466L16.8071 21.8178L19.7284 18.895C19.7685 18.8548 19.7986 18.8347 19.8187 18.8347C19.8388 18.8347 19.8689 18.8548 19.9091 18.895L23.9748 22.9628C24.015 23.003 24.035 23.0331 24.035 23.0532C24.035 23.0532 24.015 23.0733 23.9748 23.1135L20.9632 26.0965C20.5214 26.4782 20.0396 26.5786 19.5176 26.3978C15.4217 24.8109 12.0085 22.6414 9.27794 19.8894C7.59142 18.202 6.11571 16.2836 4.85081 14.1342C3.94732 12.5874 3.2446 11.0909 2.74266 9.64453V9.6144C2.66235 9.43361 2.65231 9.22269 2.71254 8.98163C2.77277 8.72049 2.8832 8.51961 3.04382 8.379L6.02536 5.33568C6.08559 5.27542 6.15586 5.24529 6.23617 5.24529ZM16.2047 8.13794V10.0664C17.0078 10.0664 17.6905 10.3476 18.2527 10.9101C18.8148 11.4725 19.0959 12.1555 19.0959 12.959H21.0234C21.0234 12.0953 20.8025 11.2917 20.3608 10.5485C19.9392 9.80524 19.3569 9.22269 18.6141 8.80084C17.8712 8.35891 17.0681 8.13794 16.2047 8.13794Z" fill="black"/>
</svg>
